<svg viewBox="-30 0 512 512.00622" xmlns="http://www.w3.org/2000/svg"><path d="m108.863281 455.460938-.257812-.144532c-4.808594-2.722656-10.910157-1.035156-13.628907 3.769532-2.726562 4.804687-1.035156 10.90625 3.769532 13.628906l.257812.148437c1.558594.882813 3.25 1.300781 4.921875 1.300781 3.484375 0 6.867188-1.824218 8.707031-5.070312 2.722657-4.808594 1.035157-10.910156-3.769531-13.632812zm0 0"/><path d="m427.328125 206.433594c5.042969-4.917969 9.414063-10.550782 12.90625-16.699219 9.914063-17.441406 12.4375-37.699219 7.109375-57.042969-5.324219-19.339844-17.863281-35.453125-35.304688-45.363281v.003906c-7.78125-4.421875-16.074218-7.363281-24.746093-8.796875-5.753907-26.746094-22.5-50.945312-48.144531-65.515625-23.085938-13.1171872-49.898438-16.457031-75.496094-9.410156-23.160156 6.378906-42.816406 20.570313-56.070313 40.3125-2.59375-2.082031-5.359375-3.957031-8.292969-5.625-14.507812-8.242187-31.359374-10.34375-47.449218-5.914063-3.273438.902344-6.429688 2.0625-9.464844 3.449219-2.328125-1.875-4.804688-3.566406-7.425781-5.054687-26.757813-15.203125-60.894531-5.804688-76.09375 20.953125-3.03125 5.332031-5.117188 10.996093-6.261719 16.902343-17.851562 6.484376-32.675781 18.945313-42.160156 35.640626-16.585938 29.191406-12.742188 64.492187 6.921875 89.328124-12.148438 25.722657-2.582031 56.957032 22.554687 71.238282 3.582032 2.039062 7.339844 3.652344 11.230469 4.832031 2.308594 13.335937 10.691406 25.726563 22.441406 32.402344 7.121094 4.046875 14.742188 6.078125 22.421875 6.078125 1.597656 0 3.195313-.085938 4.789063-.261719l.027343 6.550781-63.546874 111.84375c-.511719.898438-.867188 1.847656-1.078126 2.808594-.140624.640625-.214843 1.285156-.226562 1.929688-.070312 3.546874 1.757812 7.019531 5.058594 8.894531l29.964844 17.027343c1.5625.886719 3.257812 1.308594 4.929687 1.308594 3.480469 0 6.863281-1.820312 8.707031-5.0625 2.726563-4.800781 1.046875-10.90625-3.753906-13.632812l-21.273438-12.089844 59.921876-105.460938c.863281-1.519531 1.3125-3.234374 1.308593-4.980468l-.414062-104.046875c.03125-.019531.058593-.035157.089843-.054688.019532-.011719.039063-.023437.058594-.035156l.007813-.003906c.425781-.25.851562-.503907 1.273437-.761719.058594-.035156.121094-.074219.175782-.109375l.59375-.367187c.316406-.195313.628906-.394532.964843-.613282l.347657-.226562c.390624-.253906.773437-.511719 1.160156-.769532.210937-.144531.417968-.289062.59375-.410156.253906-.171875.503906-.351562.757812-.53125l.578125-.421875c.441407-.316406.878907-.636719 1.3125-.964843.121094-.089844.246094-.183594.363281-.273438l.578126-.445312c.292968-.226563.582031-.457032.914062-.71875l.308594-.25c.304687-.25.609375-.5.914062-.753907.082032-.070312.15625-.128906.242188-.203125l.347656-.292968c.332031-.28125.664062-.570313 1.007812-.871094l.363282-.324219c.085937-.078125.175781-.160156.257812-.234375.222656-.199219.445313-.402344.667969-.605469.042969-.039062.082031-.074219.125-.113281l.238281-.222656c.371094-.347656.738282-.695313 1.109375-1.054688l.183594-.179687c.246094-.238281.488281-.480469.730469-.722657.078125-.078124.164062-.152343.242187-.234374h.003907c.675781.550781 1.363281 1.085937 2.0625 1.609374.238281.175782.480468.339844.71875.511719.472656.34375.945312.683594 1.429687 1.011719.054687.039062.109375.082031.164063.117188l18.824218 87.535156-15.144531 26.652344c-2.726563 4.800781-1.046875 10.902343 3.753906 13.632812 1.558594.886719 3.257813 1.304688 4.929688 1.304688 3.480469 0 6.863281-1.816407 8.703125-5.058594l49.675781-87.421875 1.855469 1.820312c.09375.085938.179687.179688.273437.269531l.480469.46875c.207031.191407.417969.382813.609375.558594l.167969.152344c.214844.195312.429687.386719.632812.5625l.175782.160156c.214843.183594.425781.367188.628906.539063l1.046875.878906c.238281.195313.472656.386719.71875.582031l.113281.09375c.242188.191406.484375.378906.738281.578125l1.046875.796875c.246094.183594.496094.367188.753906.554688l.171876.125c.246093.179687.496093.355468.722656.515625l.191406.132812c.257812.179688.519531.359375.757812.523438l.136719.089843c.261719.175782.527344.351563.835938.558594l.148437.09375c.257813.171875.519532.339844.828125.535156l.121094.074219c.277344.175781.554687.347657.773437.480469.03125.019531.0625.039062.09375.058594.640626.390625 1.289063.773437 1.941407 1.144531.285156.164063.574219.324219.910156.507813l.503906.25c1.519531.820312 3.058594 1.597656 4.621094 2.300781l.109375.054687.082031.03125c2.089844.929688 4.21875 1.757813 6.375 2.480469l.1875.070313c.035157.011718.066407.023437.101563.035156l2.628906.8125c.039062.011718.074219.019531.113281.03125l.796875.222656c.042969.011719.082032.023438.125.035156l.828125.21875c.25.066406.5.128906.695313.175782l1.171875.28125c.292969.066406.585937.132812.886719.199218.007812 0 .019531.003906.027343.003906.257813.054688.515625.109376.773438.164063.050781.007813.121093.023437.144531.027344l1.371094.265625c.011718 0 .109375.015625.117187.019531l.78125.109375c1.304688.21875 2.613281.398438 3.925781.546875l.855469.117187.410157.019532c1.945312.183594 3.902343.277344 5.855468.296875l.550782.027343-53.441407 94.050782c-2.164062 3.8125-1.59375 8.59375 1.410157 11.789062 3.003906 3.199219 7.742187 4.0625 11.679687 2.132813l76.699219-37.527344c1.277344 3.734375 2.878906 7.351563 4.78125 10.808594l-41.570313 26.8125c-.003906 0-.003906.003906-.007812.007812l-42.386719 27.335938-49.21875 26.128906c-4.878906 2.585937-6.734375 8.640625-4.144531 13.519531 1.796875 3.382813 5.257812 5.3125 8.839843 5.3125 1.582032 0 3.1875-.375 4.679688-1.167968l19.230469-10.207032-32.738281 57.617188-19.308594-10.96875c-4.804688-2.730469-10.90625-1.050782-13.636719 3.753906-2.726563 4.800781-1.046875 10.90625 3.753906 13.632812l28.003907 15.910157c1.519531.863281 3.222656 1.308593 4.9375 1.308593.890624 0 1.785156-.121093 2.65625-.359374 2.554687-.707032 4.730468-2.394532 6.039062-4.703126l53.453125-94.070312 29.933594-19.308594c5.085937 10.734375 13.355469 19.773438 23.871093 25.75 9.074219 5.15625 18.953126 7.601563 28.707032 7.601563 20.308594 0 40.066406-10.609375 50.796875-29.492188 3.480469-6.128906 5.816406-12.816406 6.90625-19.71875 20.453125-2.738281 39.449219-14.652343 50.40625-33.933593 8.128906-14.304688 10.773437-30.6875 7.667969-46.664063 5.449218-4.425781 10.074218-9.855469 13.5625-16 14.628906-25.753906 6.800781-58.222656-17.195313-74.675781zm-25.167969-101.714844c12.796875 7.269531 21.996094 19.089844 25.902344 33.28125 3.910156 14.191406 2.058594 29.054688-5.214844 41.851562-1.292968 2.277344-2.722656 4.433594-4.285156 6.46875-1.652344-7.308593-4.324219-14.289062-7.871094-20.789062-.054687-.101562-.109375-.203125-.164062-.300781-.476563-.867188-.972656-1.722657-1.484375-2.570313-.183594-.308594-.367188-.621094-.558594-.925781-.414063-.675781-.84375-1.339844-1.28125-2.003906-.308594-.464844-.621094-.929688-.9375-1.390625-.359375-.523438-.730469-1.042969-1.105469-1.554688-.417968-.578125-.84375-1.152344-1.277344-1.71875-.3125-.40625-.628906-.816406-.953124-1.21875-.515626-.648437-1.046876-1.285156-1.585938-1.917968-.277344-.324219-.550781-.652344-.835938-.972657-.601562-.683593-1.21875-1.355469-1.84375-2.019531-.25-.269531-.5-.539062-.757812-.804688-.667969-.691406-1.355469-1.371093-2.050781-2.039062-.242188-.230469-.476563-.464844-.722657-.695312-.722656-.679688-1.46875-1.34375-2.21875-1.996094-.238281-.207032-.46875-.421875-.710937-.625-.773437-.660156-1.570313-1.300782-2.371094-1.929688-.238281-.1875-.464843-.378906-.703125-.5625-.847656-.652344-1.714844-1.28125-2.59375-1.902344-.203125-.144531-.40625-.300781-.613281-.445312-1.089844-.757812-2.199219-1.492188-3.328125-2.199219.082031-.203125.148438-.414062.230469-.621093.03125-.082032.058593-.167969.089843-.25 4.441407-11.5625 6.582032-23.546876 6.589844-35.402344 4.382813 1.203125 8.613282 2.957031 12.65625 5.253906zm-277.449218-56.753906c-1.527344 1.503906-2.984376 3.089844-4.359376 4.753906-.039062.046875-.078124.097656-.121093.148438-1.148438 1.402343-2.246094 2.855468-3.28125 4.363281-.3125.453125-.617188.910156-.917969 1.371093-.179688.277344-.355469.550782-.53125.832032-.480469.761718-.945312 1.53125-1.390625 2.316406-1.460937 2.570312-2.730469 5.214844-3.804687 7.933594-1.132813-.464844-2.269532-.894532-3.417969-1.304688-.316407-.113281-.632813-.214844-.949219-.324218-.835938-.289063-1.675781-.566407-2.519531-.828126-.378907-.113281-.753907-.222656-1.132813-.332031-.804687-.234375-1.609375-.457031-2.421875-.664062-.375-.097657-.753906-.191407-1.132812-.285157-.851563-.203124-1.707031-.394531-2.566407-.570312-.324218-.066406-.648437-.140625-.972656-.203125-1.066406-.207031-2.136718-.390625-3.210937-.550781-.113281-.015625-.226563-.039063-.339844-.054688-1.238281-.183594-2.484375-.335937-3.730469-.457031-.085937-.007813-.171875-.015625-.257812-.023437-1.113282-.105469-2.230469-.183594-3.347656-.242188-.300782-.015625-.605469-.023438-.90625-.039062-.914063-.035157-1.824219-.058594-2.738282-.066407-.164062 0-.328125-.011719-.488281-.011719-.304687 0-.605469.011719-.910156.015626-.445313.003906-.894531.007812-1.34375.023437-.640625.015625-1.277344.046875-1.914063.082031-.320312.015625-.636718.023438-.957031.042969.367187-.769531.765625-1.527344 1.191406-2.277344 9.691407-17.050781 31.359375-23.117187 48.472657-13.648437zm-41.246094 236.722656c-7.84375-4.457031-13.171875-13.875-12.960938-22.902344.117188-5.050781-3.542968-9.394531-8.539062-10.128906-4.28125-.632812-8.375-2.046875-12.175782-4.203125-13.902343-7.898437-20.328124-23.953125-16.691406-38.765625.074219.054688.152344.101562.222656.15625.816407.582031 1.652344 1.140625 2.492188 1.699219.34375.226562.675781.464843 1.023438.6875 1.191406.765625 2.410156 1.503906 3.65625 2.214843 1.039062.585938 2.085937 1.140626 3.136718 1.679688.230469.117188.460938.234375.695313.351562 2.199219 1.097657 4.433593 2.085938 6.6875 2.964844.074219.03125.148437.058594.222656.085938 9.335937 3.605468 19.085937 5.371094 28.765625 5.367187.339844 0 .675781-.019531 1.015625-.023437s.679687-.015625 1.019531-.027344c.933594-.023438 1.863282-.054688 2.792969-.109375.398437-.027344.796875-.058594 1.195313-.089844.875-.066406 1.75-.136719 2.621093-.230469.449219-.050781.894531-.109374 1.34375-.167968.824219-.101563 1.648438-.207032 2.46875-.335938.480469-.078125.957031-.164062 1.433594-.25.796875-.140625 1.589844-.28125 2.382813-.445312.480468-.097656.960937-.214844 1.441406-.320313.789062-.179687 1.578125-.359375 2.363281-.5625.125-.03125.25-.054687.371094-.089843l.265625 66.460937c-5.855469 1.183594-11.640625.175781-17.25-3.015625zm91.503906-19.8125-11.21875-52.164062c10.34375 1.96875 21.046875 1.175781 31.042969-2.359376 1.167969 4.027344 2.699219 7.917969 4.535156 11.648438zm109.863281-1.132812c4.503907 4.152343 9.484375 7.789062 14.894531 10.863281 1.453126.820312 2.925782 1.601562 4.421876 2.335937-6.097657 11.007813-8.808594 23.003906-8.496094 34.777344l-52.746094 25.8125zm63.761719 123.796874c-10.4375 18.367188-33.875 24.816407-52.234375 14.382813-7.6875-4.367187-13.5625-11.21875-16.742187-19.332031l36.625-23.621094c.070312.066406.148437.128906.21875.195312.867187.839844 1.761718 1.652344 2.679687 2.449219.394531.339844.800781.667969 1.203125 1 .621094.511719 1.25 1.019531 1.894531 1.515625.421875.324219.847657.644532 1.273438.957032.699219.507812 1.410156 1.003906 2.132812 1.492187.371094.253906.742188.511719 1.121094.753906 1.109375.71875 2.234375 1.414063 3.398437 2.078125.800782.453125 1.605469.882813 2.417969 1.300782.199219.105468.402344.207031.605469.304687.675781.34375 1.355469.671875 2.035156.988281.148438.066406.300782.140625.449219.207032 1.769531.804687 3.554687 1.527343 5.355469 2.167968.015625.003906.03125.011719.042968.015625.929688.332031 1.867188.640625 2.804688.925781 0 .003907.003906.003907.007812.003907 1.851563.570312 3.714844 1.054687 5.589844 1.457031.152344.035156.300782.066406.453125.097656.734375.152344 1.464844.292969 2.203125.421875.148438.023438.300782.058594.453125.085938-.835937 3.535156-2.175781 6.957031-3.988281 10.152343zm57.3125-53.652343c-9.027344 15.890625-25.777344 24.707031-42.878906 24.421875-.261719-.003906-.519532-.019532-.78125-.027344-.945313-.03125-1.890625-.09375-2.839844-.179688-.480469-.042968-.964844-.085937-1.445312-.148437-.394532-.046875-.789063-.105469-1.183594-.167969-.582032-.085937-1.164063-.179687-1.742188-.289062-.308594-.058594-.621094-.113282-.929687-.179688-.847657-.175781-1.695313-.371094-2.535157-.589844-.046874-.011718-.089843-.023437-.132812-.035156-.949219-.253906-1.882812-.539062-2.8125-.847656-.144531-.046875-.289062-.101562-.429688-.152344-.757812-.257812-1.507812-.539062-2.25-.835937-.230468-.09375-.457031-.1875-.6875-.285157-.671874-.28125-1.339843-.582031-2.003906-.894531-.222656-.109375-.449218-.207031-.671875-.320312-.859375-.421875-1.707031-.859375-2.539062-1.335938-.714844-.402343-1.414063-.828125-2.097657-1.261719-.125-.078124-.238281-.164062-.359374-.242187-.566407-.367187-1.132813-.738281-1.679688-1.128906-.082031-.058594-.164062-.125-.246094-.183594-.582031-.417969-1.15625-.84375-1.710937-1.285156-.039063-.027344-.074219-.058594-.113281-.089844-3.117188-2.476563-5.867188-5.292969-8.222657-8.363281-.382812-.5-.75-1.015625-1.117187-1.53125-.417969-.59375-.820313-1.195313-1.210938-1.804688-.179687-.285156-.363281-.570312-.539062-.855468-.308594-.503907-.605469-1.007813-.894532-1.519532-.128906-.230468-.25-.460937-.371093-.691406-.96875-1.785156-1.824219-3.625-2.554688-5.511719-.078125-.195312-.152343-.394531-.226562-.589843-.738281-1.976563-1.347657-3.996094-1.824219-6.050782-.03125-.144531-.070312-.285156-.101562-.433594-.144532-.640624-.269532-1.289062-.386719-1.9375-.039063-.210937-.074219-.421874-.109375-.632812-1.753906-10.550781-.050782-21.746094 5.628906-31.746094 1.5-2.636718 3.25-5.140625 5.207031-7.445312 2.1875-2.574219 2.925781-6.078125 1.960938-9.316406-.960938-3.238282-3.492188-5.773438-6.726563-6.738282-4.410156-1.3125-8.695312-3.144531-12.738281-5.445312-6.925781-3.929688-12.90625-9.070313-17.78125-15.277344-1.9375-2.460938-4.855469-3.820312-7.863281-3.820312-1.136719 0-2.277344.191406-3.386719.589843-.832031.300781-1.671875.574219-2.511719.828125l-3.789062.980469c-.234375.050781-.472656.101563-.707032.152344l-5.140624.792969c-2.066407.210937-4.132813.304687-6.199219.265624l-1.042969-.023437c-.40625-.019531-.808594-.046875-1.214844-.074219l-6.636718-.835937c-.800782-.160157-1.601563-.339844-2.394532-.535157l-.355468-.085937c-.46875-.121094-.933594-.257813-1.398438-.390625l-4.289062-1.425781c-.234376-.089844-.46875-.1875-.707032-.28125l-5.441406-2.554688c-.285156-.15625-.578125-.296875-.859375-.457031-.714844-.410156-1.410156-.84375-2.101563-1.285156l-1.164062-.757813c-.421875-.28125-.835938-.574219-1.246094-.871093l-3.0625-2.351563c-.3125-.261719-.609375-.539063-.917968-.808594l-2.113282-1.964843c-.363281-.355469-.722656-.71875-1.070312-1.085938l-2.984375-3.402344c-.277344-.347656-.546875-.699218-.8125-1.046875l-2.800781-4.085937c-4.164063-6.753906-6.78125-14.46875-7.46875-22.621094-.296876-3.503906-2.414063-6.597656-5.570313-8.144531-3.160156-1.542969-6.902344-1.3125-9.851563.605469-12.597656 8.203124-28.539062 8.691406-41.597656 1.273437-4.265625-2.425781-7.996094-5.554687-11.089844-9.300781-1.46875-1.78125-3.492187-2.984375-5.707031-3.4375-.105469-.019532-.210937-.027344-.3125-.046875-.269531-.042969-.535156-.09375-.808593-.117188-.257813-.023437-.519532-.019531-.777344-.023437-.125 0-.242188-.011719-.367188-.011719h-.003906c-.246094.007813-.488281.039063-.734375.0625-.132813.015625-.269531.015625-.402344.035156-.230469.03125-.457031.085938-.683593.136719-.144532.03125-.289063.046875-.429688.085938-.21875.058593-.433594.136718-.644531.207031-.144531.046875-.289063.082031-.429688.136719-.207031.078124-.40625.179687-.605469.273437-.140624.066406-.285156.117187-.421874.191406-.1875.097657-.371094.21875-.554688.328125-.136719.082032-.277344.15625-.410156.246094-.179688.121094-.347656.261719-.519532.394531-.125.097657-.257812.183594-.378906.285157-.167968.140624-.320312.300781-.476562.457031-.113282.109375-.234375.210937-.34375.324219-.160156.175781-.308594.363281-.457032.546874-.089843.113282-.1875.214844-.273437.332032-.003906 0-.003906.003906-.003906.007812h-.003907c-.550781.75-1.121093 1.480469-1.703124 2.195313-.007813.007812-.011719.011719-.015626.019531-.03125.035156-.058593.070312-.085937.105469-.539063.65625-1.089844 1.296875-1.648437 1.925781-.027344.03125-.046876.054688-.074219.085938-.0625.066406-.121094.132812-.183594.199218-.53125.585938-1.070313 1.164063-1.617187 1.722656l-.117188.121094c-.09375.09375-.179688.179688-.273438.269532-.46875.472656-.949218.9375-1.433593 1.394531-.03125.027343-.066407.0625-.097657.089843l-.203124.191407c-.128907.117187-.246094.222656-.371094.335937-.402344.367188-.8125.726563-1.222656 1.082032-.066407.054687-.128907.113281-.191407.167968l-.296875.25c-.175781.148438-.347656.289063-.519531.425782-.308594.257812-.621094.507812-.9375.757812-.101563.082031-.203125.160156-.308594.246094l-3.191406 2.316406c-.207031.140625-.417969.28125-.636719.425781l-.441406.289063c-.246094.15625-.492188.316406-.738281.46875l-.414063.257812c-.246094.152344-.5.304688-.730468.441406l-.410157.242188c-.003906.003906-.007812.007812-.011719.007812-.230468.136719-.464843.269532-.71875.410157-.007812.007812-.015624.011719-.027343.015625-.023438.015625-.046875.027344-.070313.042968l-.035156.019532c-1.136719.640625-2.3125 1.25-3.492188 1.816406-5.523437 2.648438-11.34375 4.402344-17.257812 5.273438-.066406.007812-.128906.015624-.195312.027343-3.523438.507813-7.078126.703125-10.625.582031-.011719 0-.023438 0-.035157 0-3.5625-.125-7.113281-.566406-10.605469-1.320312-.042968-.007812-.085937-.015625-.125-.027344-1.148437-.25-2.292968-.53125-3.429687-.851562 0 0 0 0-.003906 0-2.21875-.621094-4.40625-1.382813-6.554688-2.265625-.234375-.09375-.464843-.195313-.695312-.292969-.804688-.34375-1.605469-.707031-2.402344-1.085938-.265625-.128906-.527344-.25-.792969-.382812-1-.496094-1.992187-1.011719-2.96875-1.570312-.804687-.453126-1.585937-.933594-2.359375-1.417969-.214843-.136719-.429687-.277344-.644531-.414063-.617188-.402344-1.230469-.8125-1.832031-1.234375-.15625-.109375-.3125-.214843-.46875-.324219-.738281-.527343-1.460938-1.070312-2.167969-1.625-.140625-.113281-.28125-.230468-.421875-.34375-.59375-.476562-1.179687-.960937-1.753906-1.457031-.148438-.128906-.296875-.257812-.445313-.386719-20.851562-18.410156-26.734375-49.574218-12.460937-74.699218 15.292969-26.910156 48.375-37.5 76.144531-25.425782.097656.046876.203125.082032.300781.128907.75.328125 1.492188.6875 2.230469 1.050781.179688.085938.359375.164062.539062.253906.859376.433594 1.710938.890625 2.558594 1.371094.042969.023438.085938.042969.128906.070312.574219.324219 1.136719.664063 1.695313 1.003907.015625.011719.035156.015625.050781.027343.320313.191407.648438.371094.992188.527344 2.417968 1.113282 14.675781 7.671875 18.503906 27.71875.917969 4.789063 5.109375 8.125 9.8125 8.125.621094 0 1.253906-.058594 1.886719-.179687 5.425781-1.039063 8.984375-6.273438 7.945312-11.699219-3.96875-20.769531-14.710937-32.105469-22.527343-37.804688.878906-2.652343 2.011718-5.226562 3.410156-7.691406.410156-.722656.847656-1.425781 1.296875-2.121094.097656-.152343.203125-.300781.300781-.449218.386719-.582032.785156-1.152344 1.199219-1.710938.074219-.101562.152343-.207031.230469-.3125 3.167968-4.199218 7.089843-7.796875 11.554687-10.550781.011719-.007813.023437-.019531.039063-.027344 3.390624-2.085937 7.089843-3.707031 11.035156-4.792969 10.9375-3.011718 22.394531-1.585937 32.257812 4.019532 4.84375 2.75 9.027344 6.351562 12.433594 10.695312 2.125 2.710938 5.496094 4.132813 8.917969 3.773438s6.417969-2.453125 7.933593-5.546875c.765626-1.5625 1.519532-3 2.308594-4.386719 10.480469-18.441406 27.511719-31.699219 47.960938-37.328125 20.445312-5.628906 41.863281-2.960937 60.304687 7.515625 22.121094 12.570312 35.960938 34.105469 39.394531 57.488281.011719.351563.035157.703125.082032 1.054688 1.207031 9.019531.867187 18.054687-.96875 26.796875-.003906.015625-.007813.035156-.011719.050781-.03125.152344-.070313.300781-.101563.449219-.023437.089844-.054687.171875-.074218.261718-.84375 3.847657-1.976563 7.617188-3.375 11.277344-.082032.214844-.171875.425782-.253906.640625-.128907.332031-.269532.660157-.402344.988281-.25.605469-.5 1.207032-.761719 1.808594-.078125.175782-.15625.351563-.234375.527344-.105469.238281-.214844.480469-.324219.71875-.417969.914062-.851562 1.820312-1.308593 2.726562-.589844 1.171876-1.199219 2.332032-1.847657 3.476563-11.796875 20.757813-32.058593 34.984375-55.589843 39.027344-5.441407.9375-9.097657 6.105469-8.160157 11.550781.835938 4.867188 5.0625 8.304688 9.84375 8.304688.5625 0 1.132813-.046876 1.703125-.144532 27.503906-4.726562 51.4375-20.566406 66.507813-43.796875.355469.234375.710937.46875 1.058593.710938.1875.128906.382813.257812.570313.390625.679687.484375 1.34375.980468 2 1.488281.261719.199219.511719.40625.769531.609375.425782.34375.851563.691406 1.269532 1.042969.277343.234375.554687.46875.828124.707031.582032.507812 1.15625 1.027344 1.714844 1.558594.261719.246094.515625.503906.773438.753906.355468.351562.714844.707031 1.0625 1.066406.273437.28125.542968.566406.8125.851563.398437.425781.789062.859375 1.175781 1.300781.261719.296875.523437.597656.78125.902344.4375.515625.867187 1.035156 1.285156 1.566406.179688.230469.359375.464844.539063.695312.449218.585938.890625 1.179688 1.316406 1.785157.066406.09375.140625.1875.207031.28125.542969.773437 1.066407 1.558593 1.570313 2.359375.023437.035156.042968.070312.066406.109375 3.144531 4.996093 5.574219 10.484375 7.183594 16.335937.792968 2.878906 1.367187 5.78125 1.734375 8.6875.019531.179688.039062.359375.0625.539063.070312.628906.128906 1.257812.183593 1.890625.03125.371094.066407.746094.089844 1.121094.007813.113281.011719.226562.019532.339843.074218 1.277344.113281 2.566407.105468 3.859375v.105469c-.003906.699219-.019531 1.398437-.046875 2.101563-.003906.015624 0 .03125 0 .046874-.019531.480469-.042969.957032-.070312 1.433594-.003907.03125-.011719.058594-.011719.085938-.222656 3.355468-.71875 6.648437-1.476562 9.871094-.074219.3125-.15625.621093-.234376.933593-.175781.695313-.363281 1.390625-.5625 2.082031-.125.425782-.253906.847657-.386718 1.269532-.183594.582031-.375 1.15625-.574219 1.734375-.160156.457031-.324219.914062-.496094 1.371093-.207031.554688-.429687 1.105469-.65625 1.65625-.183593.445313-.359375.886719-.554687 1.328126-.265625.609374-.554688 1.21875-.84375 1.824218-.171875.363282-.335938.726563-.515625 1.082032-.484375.96875-.988281 1.925781-1.527344 2.871093-2.386719 4.199219-5.234375 8.074219-8.503906 11.5625-1.089844 1.164063-2.222657 2.285157-3.402344 3.363281-2.496094 2.273438-3.675781 5.660157-3.132813 8.992188.542969 3.335938 2.734376 6.171875 5.824219 7.539062 1.492188.660157 2.964844 1.402344 4.375 2.207032.683594.386718 1.355469.792968 2.015625 1.207031.363282.230469.714844.476563 1.070313.714844.285156.191406.574219.375.851562.570312.476563.332031.933594.679688 1.394531 1.023438.148438.113281.300782.222656.449219.335937.523438.40625 1.039063.828125 1.542969 1.253906.070312.058594.144531.117188.214844.175782.550781.46875 1.085937.949218 1.609375 1.4375.027343.023437.050781.042968.074219.066406 2.203124 2.066406 4.203124 4.332031 5.972656 6.769531.003906.003907.007812.007813.011718.011719.429688.589844.84375 1.191406 1.246094 1.800781.019532.03125.042969.0625.0625.09375.382813.582031.75 1.171875 1.105469 1.773438.039063.066406.082031.132812.121094.203125.332031.5625.652343 1.136718.960937 1.714844.058594.113281.121094.226562.183594.34375.28125.535156.550781 1.082031.8125 1.628906.082031.167968.160156.335937.238281.503906.234375.503906.457031 1.015625.675781 1.53125.09375.222656.1875.449219.277344.675781.191406.46875.375.941407.550782 1.417969.101562.28125.203124.5625.300781.84375.152343.441406.300781.878906.4375 1.324219.183593.578125.367187 1.160156.53125 1.75 3.421875 12.4375 1.800781 25.46875-4.574219 36.6875zm21.230469-62.664063c-1.070313 1.886719-2.304688 3.664063-3.675781 5.320313-3.683594-6.574219-8.421876-12.472657-14.066407-17.488281-.09375-.082032-.1875-.164063-.28125-.246094-.8125-.714844-1.640625-1.410156-2.492187-2.085938-.132813-.109375-.265625-.21875-.402344-.324218-.949219-.746094-1.914062-1.480469-2.90625-2.175782.304688-.390625.59375-.792968.894531-1.1875.902344-1.199218 1.785157-2.417968 2.625-3.667968 1.113281-1.664063 2.171875-3.371094 3.164063-5.125.601562-1.054688 1.164062-2.121094 1.714844-3.191407.125-.246093.25-.492187.371093-.738281 1.085938-2.167969 2.066407-4.371094 2.945313-6.605469.089844-.230469.175781-.460937.265625-.691406.398437-1.042969.777343-2.089844 1.128906-3.140625.035156-.097656.070313-.191406.101563-.285156.347656-1.054688.667968-2.113282.96875-3.179688.125-.429687.238281-.859375.355468-1.289062.0625-.238282.132813-.476563.195313-.71875 13.925781 11.027344 18.132812 30.910156 9.09375 46.820312zm0 0"/><path d="m275.425781 177.492188-.113281-.019532c-5.421875-1.046875-10.664062 2.507813-11.707031 7.929688-1.042969 5.425781 2.507812 10.664062 7.929687 11.707031.015625.003906.101563.019531.125.023437.636719.121094 1.269532.179688 1.890625.179688 4.699219 0 8.886719-3.328125 9.808594-8.109375 1.042969-5.425781-2.507813-10.667969-7.933594-11.710937zm0 0"/><path d="m137.757812 360.585938c3.480469 0 6.859376-1.816407 8.703126-5.058594l.148437-.257813c2.726563-4.800781 1.050781-10.90625-3.75-13.636719-4.800781-2.726562-10.90625-1.046874-13.636719 3.75l-.148437.261719c-2.726563 4.800781-1.046875 10.90625 3.753906 13.632813 1.558594.890625 3.253906 1.308594 4.929687 1.308594zm0 0"/></svg>