<svg xmlns="http://www.w3.org/2000/svg" viewBox="0 0 512 512"><defs><style>.cls-1{fill:#fff;}</style></defs><title>Dashboard</title><g id="Layer_2" data-name="Layer 2"><g id="Layer_1-2" data-name="Layer 1"><path class="cls-1" d="M197.33,170.67h-160A37.37,37.37,0,0,1,0,133.33v-96A37.37,37.37,0,0,1,37.33,0h160a37.37,37.37,0,0,1,37.34,37.33v96A37.37,37.37,0,0,1,197.33,170.67ZM37.33,32A5.34,5.34,0,0,0,32,37.33v96a5.34,5.34,0,0,0,5.33,5.34h160a5.34,5.34,0,0,0,5.34-5.34v-96A5.34,5.34,0,0,0,197.33,32Z"/><path class="cls-1" d="M197.33,512h-160A37.37,37.37,0,0,1,0,474.67v-224a37.37,37.37,0,0,1,37.33-37.34h160a37.37,37.37,0,0,1,37.34,37.34v224A37.37,37.37,0,0,1,197.33,512Zm-160-266.67A5.34,5.34,0,0,0,32,250.67v224A5.34,5.34,0,0,0,37.33,480h160a5.34,5.34,0,0,0,5.34-5.33v-224a5.34,5.34,0,0,0-5.34-5.34Z"/><path class="cls-1" d="M474.67,512h-160a37.37,37.37,0,0,1-37.34-37.33v-96a37.37,37.37,0,0,1,37.34-37.34h160A37.37,37.37,0,0,1,512,378.67v96A37.37,37.37,0,0,1,474.67,512Zm-160-138.67a5.34,5.34,0,0,0-5.34,5.34v96a5.34,5.34,0,0,0,5.34,5.33h160a5.34,5.34,0,0,0,5.33-5.33v-96a5.34,5.34,0,0,0-5.33-5.34Z"/><path class="cls-1" d="M474.67,298.67h-160a37.37,37.37,0,0,1-37.34-37.34v-224A37.37,37.37,0,0,1,314.67,0h160A37.37,37.37,0,0,1,512,37.33v224A37.37,37.37,0,0,1,474.67,298.67ZM314.67,32a5.34,5.34,0,0,0-5.34,5.33v224a5.34,5.34,0,0,0,5.34,5.34h160a5.34,5.34,0,0,0,5.33-5.34v-224A5.34,5.34,0,0,0,474.67,32Z"/></g></g></svg>