<svg id="Capa_1" enable-background="new 0 0 511.997 511.997" height="512" viewBox="0 0 511.997 511.997" width="512" xmlns="http://www.w3.org/2000/svg"><g><path d="m255.997 511.997c110.386 0 200.751-89.752 200.751-200.751 0-86.017-54.192-160.229-131.839-188.607-6.447-2.356-11.946-6.544-15.902-12.111-7.205-10.136-18.407-16.661-30.627-18.04v-12.77l19.928-5.34c10.124 23.663 36.845 37.177 63.321 30.083 13.127-3.518 31.794-15.216 47.556-29.804 13.22-12.235 28.168-29.847 24.304-44.266-3.863-14.42-25.614-22.198-43.181-26.184-20.944-4.752-42.96-5.55-56.087-2.033-26.562 7.117-42.849 32.248-39.795 57.714l-16.045 4.299v-41.38c0-7.989-6.499-14.488-14.488-14.488h-15.789c-7.989 0-14.488 6.499-14.488 14.488v13.99c0 4.142 3.358 7.5 7.5 7.5s7.5-3.358 7.5-7.5v-13.476h14.765v68.894h-14.765v-20.416c0-4.142-3.358-7.5-7.5-7.5s-7.5 3.358-7.5 7.5v20.69c-12.22 1.378-23.421 7.904-30.626 18.04-3.955 5.563-9.477 9.76-15.968 12.134-11.777 4.309-23.216 9.768-34 16.224-3.554 2.128-4.71 6.734-2.583 10.288 2.128 3.554 6.733 4.71 10.288 2.583 9.976-5.973 20.557-11.021 31.449-15.007 9.353-3.421 17.319-9.483 23.04-17.531 5.343-7.516 14.038-12.003 23.259-12.003h10.024v294.006c0 4.142 3.358 7.5 7.5 7.5 4.143 0 7.5-3.358 7.5-7.5v-46.057c6.747 1.687 12.637 5.987 16.175 12.088.495.863 32.848 56.895 32.908 56.998 4.884 8.459.91 19.293-8.302 22.573-13.122 4.674-26.808 7.392-40.781 8.108v-18.709c0-4.142-3.357-7.5-7.5-7.5-4.142 0-7.5 3.358-7.5 7.5v60.63c-46.943-1.837-90.721-20.898-123.964-54.141-76.205-76.205-71.066-200.276 8.416-270.614 3.102-2.745 3.392-7.485.646-10.587-2.745-3.103-7.486-3.391-10.587-.646-85.746 75.882-91.584 209.952-9.082 292.454 37.839 37.837 88.294 58.677 142.069 58.677zm82.106-495.332c4.149-1.112 9.746-1.652 16.113-1.652 9.92 0 21.705 1.313 32.771 3.824 21.775 4.941 31.074 11.939 32.012 15.438s-3.616 14.209-20.004 29.375c-13.674 12.655-30.636 23.479-41.25 26.323-18.661 5.003-37.02-4.103-44.735-19.534l12.258-3.284 23.957 13.831c3.581 2.067 8.17.85 10.245-2.745 2.071-3.587.842-8.174-2.745-10.245l-10.967-6.332 47.172-12.64c4.001-1.072 6.375-5.185 5.303-9.186-1.071-4.001-5.184-6.372-9.186-5.304l-27.904 7.477 5.716-9.901c2.071-3.587.842-8.174-2.745-10.245-3.59-2.072-8.175-.842-10.245 2.745l-13.216 22.891c-.328.088-25.491 6.83-31.525 8.447-1.037-17.26 10.348-34.293 28.975-39.283zm44.042 287.08h-65.441c-9.559 0-18.375-5.163-23.011-13.481-.166-.297-.336-.592-.514-.895-4.848-8.226-5.233-18.427-.494-26.669l32.87-56.933c4.899-8.472 16.276-10.412 23.719-4.068 25.29 21.555 42.447 51.327 48.31 83.831 1.706 9.465-5.725 18.215-15.439 18.215zm15.438 33.217c-5.862 32.503-23.02 62.275-48.31 83.831-7.438 6.341-18.819 4.405-23.719-4.068-40.278-69.763-31.652-54.834-32.901-56.986-4.612-8.046-4.414-18.237.531-26.627.095-.162.463-.797.511-.891 4.633-8.312 13.449-13.475 23.008-13.475h65.441c9.716-.001 17.146 8.75 15.439 18.216zm-85.003-138.721c-.103.178-32.545 56.369-32.899 56.983-3.539 6.114-9.418 10.407-16.184 12.096v-99.76c13.973.716 27.659 3.434 40.781 8.108 9.202 3.277 13.191 14.105 8.302 22.573zm-49.083 84.379c3.842-.6 7.548-1.734 11.016-3.343.567 6.116 2.482 12.174 5.738 17.698.117.199.232.4.343.597 3.077 5.522 7.327 10.159 12.341 13.673-5.012 3.512-9.261 8.148-12.338 13.666-.113.203-.229.404-.34.594-3.257 5.525-5.173 11.582-5.742 17.696-3.468-1.61-7.175-2.743-11.019-3.34v-57.241zm45.814 178.333c10.391-3.701 17.778-12.548 19.815-23.081 10.142 3.479 21.485 1.489 29.878-5.664 27.921-23.798 46.864-56.678 53.341-92.584 1.911-10.598-1.936-21.318-10.077-28.379 8.135-7.055 11.99-17.773 10.077-28.378-6.477-35.906-25.42-68.787-53.341-92.584-8.393-7.154-19.735-9.143-29.878-5.664-2.038-10.532-9.424-19.379-19.815-23.081-14.741-5.25-30.119-8.267-45.814-8.995v-45.327h10.023c9.222 0 17.917 4.487 23.26 12.004 5.724 8.051 13.67 14.105 22.98 17.508 72.964 26.667 121.987 96.8 121.987 174.519 0 99.911-79.29 181.651-178.251 185.601v-26.899c15.696-.729 31.074-3.745 45.815-8.996z"/><path d="m361.695 241.56-56.932 32.869c-3.587 2.071-4.816 6.658-2.745 10.245 2.08 3.605 6.675 4.807 10.245 2.745l56.932-32.869c3.587-2.071 4.816-6.658 2.745-10.245-2.07-3.587-6.659-4.817-10.245-2.745z"/><path d="m302.018 337.816c-2.071 3.587-.842 8.174 2.745 10.245l56.931 32.869c3.581 2.067 8.17.85 10.245-2.745 2.071-3.587.842-8.174-2.745-10.245l-56.931-32.869c-3.589-2.073-8.176-.842-10.245 2.745z"/><circle cx="123.702" cy="366.935" r="7.5"/><circle cx="168.244" cy="387.797" r="7.5"/><circle cx="151.871" cy="432.042" r="7.5"/><circle cx="188.008" cy="428.174" r="7.5"/><circle cx="222.808" cy="462.622" r="7.5"/><circle cx="222.808" cy="408.903" r="7.5"/></g></svg>