<svg height="512" viewBox="0 0 64 64" width="512" xmlns="http://www.w3.org/2000/svg"><g id="Filled_outline" data-name="Filled outline"><path d="m45.381 27 1.619 34h6l-1.619-34z" fill="#f9bb4b"/><path d="m30 19h-23l-2 42h42l-1.619-34z" fill="#ffd782"/><path d="m59 3v24h-17l-6 5v-5h-6v-24z" fill="#9b1e5a"/><path d="m17 3a7 7 0 0 1 7 7v9a0 0 0 0 1 0 0h-14a0 0 0 0 1 0 0v-9a7 7 0 0 1 7-7z" fill="#d3843d"/><circle cx="24" cy="51" fill="#e97424" r="10"/><path d="m17 35h2a6 6 0 0 1 6 6 0 0 0 0 1 0 0h-2a6 6 0 0 1 -6-6 0 0 0 0 1 0 0z" fill="#8ec13f"/><path d="m38 16h8.719l-.5 2h-7.219a3 3 0 1 0 3 3 2.966 2.966 0 0 0 -.184-1h2.368a2.966 2.966 0 0 0 -.184 1 3 3 0 1 0 4.215-2.737l2.566-10.263h3.219v-2h-18a1 1 0 0 0 -.97 1.243l2 8a1 1 0 0 0 .97.757zm2 5a1 1 0 1 1 -1-1 1 1 0 0 1 1 1zm7 1a1 1 0 1 1 1-1 1 1 0 0 1 -1 1zm1.719-14-.5 2h-7.219v2h6.719l-.5 2h-8.438l-1.5-6z"/><path d="m5 62h48a1 1 0 0 0 1-1.047l-1.57-32.953h6.57a1 1 0 0 0 1-1v-24a1 1 0 0 0 -1-1h-29a1 1 0 0 0 -1 1v15h-4v-8a8 8 0 0 0 -16 0v8h-2a1 1 0 0 0 -1 .953l-2 42a1 1 0 0 0 1 1.047zm18-22a5.008 5.008 0 0 1 -4.9-4h.9a5.008 5.008 0 0 1 4.9 4zm1 2a9 9 0 1 1 -9 9 9.011 9.011 0 0 1 9-9zm27.951 18h-4l-.029-.594-1.492-31.406h4zm-20.951-56h27v22h-16a1 1 0 0 0 -.64.232l-4.36 3.633v-2.865a1 1 0 0 0 -1-1h-5zm-20 6a6 6 0 0 1 12 0v8h-12zm-3.046 10h21.046v7a1 1 0 0 0 1 1h5v4a1 1 0 0 0 1.64.768l5.722-4.768h2.064l1.525 32h-15.646a10.986 10.986 0 0 0 -4.245-19.8c.2-1.636 1.068-5.2 4.94-5.2v-2a6.385 6.385 0 0 0 -6.181 4.115 7 7 0 0 0 -5.819-3.115h-2a1 1 0 0 0 -1 1 6.994 6.994 0 0 0 3.427 6.008 10.978 10.978 0 0 0 -1.727 18.992h-11.651z"/><path d="m38 56h2v2h-2z"/><path d="m42 56h2v2h-2z"/><path d="m20 22h2v2h-2z"/><path d="m24 22h2v2h-2z"/><path d="m13.838 9h6.325v2h-6.325z" transform="matrix(.949 -.316 .316 .949 -2.291 5.892)"/><path d="m13.838 14h6.325v2h-6.325z" transform="matrix(.949 -.316 .316 .949 -3.872 6.149)"/><path d="m17 51.056c.134 2.4 1.978 6.944 8 6.944v-2c-5.515 0-5.968-4.542-6-5.06z"/><path d="m18 47h2v2h-2z"/><path d="m18 22h-7a1 1 0 0 0 -1 .934l-1 15 2 .132.936-14.066h6.064z"/></g></svg>